<svg width="96" height="96" viewBox="0 0 96 96" fill="none" xmlns="http://www.w3.org/2000/svg">
<path d="M45.16 62.84C45.5404 63.2042 45.989 63.4896 46.48 63.68C47.4538 64.0801 48.5462 64.0801 49.52 63.68C50.011 63.4896 50.4596 63.2042 50.84 62.84L62.84 50.84C63.5932 50.0868 64.0164 49.0652 64.0164 48C64.0164 46.9348 63.5932 45.9132 62.84 45.16C62.0868 44.4068 61.0652 43.9837 60 43.9837C58.9348 43.9837 57.9132 44.4068 57.16 45.16L52 50.36V36C52 34.9392 51.5786 33.9217 50.8284 33.1716C50.0783 32.4214 49.0609 32 48 32C46.9391 32 45.9217 32.4214 45.1716 33.1716C44.4214 33.9217 44 34.9392 44 36V50.36L38.84 45.16C38.4681 44.7851 38.0257 44.4875 37.5383 44.2845C37.0509 44.0814 36.528 43.9768 36 43.9768C35.472 43.9768 34.9491 44.0814 34.4617 44.2845C33.9743 44.4875 33.5319 44.7851 33.16 45.16C32.7851 45.5319 32.4875 45.9743 32.2844 46.4617C32.0814 46.9492 31.9768 47.472 31.9768 48C31.9768 48.5281 32.0814 49.0509 32.2844 49.5383C32.4875 50.0258 32.7851 50.4682 33.16 50.84L45.16 62.84ZM48 88C55.9113 88 63.6448 85.6541 70.2228 81.2588C76.8008 76.8635 81.9277 70.6164 84.9552 63.3074C87.9827 55.9983 88.7748 47.9556 87.2314 40.1964C85.688 32.4372 81.8784 25.3098 76.2843 19.7157C70.6902 14.1216 63.5629 10.312 55.8036 8.76861C48.0444 7.2252 40.0017 8.01733 32.6927 11.0448C25.3836 14.0723 19.1365 19.1992 14.7412 25.7772C10.346 32.3552 8 40.0888 8 48C8 58.6087 12.2143 68.7828 19.7157 76.2843C23.4301 79.9986 27.8396 82.945 32.6927 84.9552C37.5457 86.9654 42.7471 88 48 88ZM48 16C54.329 16 60.5159 17.8768 65.7782 21.393C71.0406 24.9092 75.1421 29.9069 77.5641 35.7541C79.9862 41.6014 80.6199 48.0355 79.3851 54.2429C78.1504 60.4503 75.1027 66.1522 70.6274 70.6274C66.1521 75.1027 60.4503 78.1504 54.2429 79.3851C48.0355 80.6199 41.6014 79.9862 35.7541 77.5642C29.9069 75.1422 24.9092 71.0406 21.393 65.7783C17.8768 60.5159 16 54.329 16 48C16 39.5131 19.3714 31.3738 25.3726 25.3726C31.3737 19.3714 39.5131 16 48 16Z" fill="white"/>
</svg>
