<svg width="65" height="65" viewBox="0 0 65 65" fill="none" xmlns="http://www.w3.org/2000/svg">
<path d="M54.3561 17.1979H40.6248V21.0167H54.4102L54.3561 17.1979ZM51.4582 43.4688C50.4165 44.159 49.1864 44.5091 47.9373 44.4709C47.1106 44.557 46.2749 44.4716 45.4827 44.22C44.6904 43.9683 43.9586 43.5558 43.3332 43.0084C42.1767 41.6972 41.5747 39.9882 41.654 38.2417H59.5832C59.7124 36.4232 59.5571 34.5956 59.1227 32.825C58.7026 31.1405 57.9675 29.5507 56.9561 28.1396C55.9381 26.7708 54.6232 25.6504 53.1102 24.8625C51.4269 24.0325 49.5702 23.6148 47.6936 23.6438C45.9286 23.6308 44.1789 23.9716 42.5477 24.6459C41.0541 25.2755 39.7007 26.1962 38.5665 27.3542C37.4355 28.5353 36.5597 29.9366 35.9936 31.4709C35.3861 33.1271 35.0833 34.8797 35.0998 36.6438C35.072 38.4329 35.3655 40.2125 35.9665 41.8979C36.477 43.4242 37.2873 44.833 38.3498 46.0417C39.4492 47.2284 40.8003 48.1538 42.304 48.75C43.9807 49.3889 45.7641 49.7014 47.5582 49.6709C50.0753 49.7493 52.5606 49.0904 54.7082 47.775C56.8773 46.2336 58.439 43.9821 59.1227 41.4104H53.1373C52.8169 42.2612 52.2273 42.984 51.4582 43.4688ZM42.1686 32.3104C42.3794 31.6352 42.7293 31.0116 43.1957 30.4798C43.6622 29.9481 44.2349 29.5199 44.8769 29.2229C45.7272 28.8402 46.6532 28.655 47.5852 28.6813C48.2586 28.6238 48.9364 28.7126 49.5722 28.9417C50.208 29.1707 50.7867 29.5346 51.2686 30.0084C52.1888 31.1348 52.7794 32.494 52.9748 33.9354H41.7352C41.7791 33.3851 41.8789 32.8406 42.0332 32.3104H42.1686ZM27.8415 31.0104C29.2199 30.4364 30.4177 29.5007 31.3082 28.3021C32.1267 27.0292 32.5333 25.5351 32.4727 24.0229C32.5258 22.644 32.2569 21.2716 31.6873 20.0146C31.2088 18.9256 30.4406 17.9888 29.4665 17.3063C28.4337 16.5966 27.2609 16.1164 26.0269 15.8979C24.5666 15.5917 23.0772 15.4463 21.5853 15.4646H5.4165V49.5354H21.9373C23.445 49.5365 24.9467 49.3454 26.4061 48.9667C27.7894 48.6088 29.0998 48.0132 30.279 47.2063C31.4212 46.4147 32.3513 45.3544 32.9873 44.1188C33.6913 42.7369 34.0359 41.2001 33.9894 39.65C34.0407 37.7291 33.5019 35.8386 32.4457 34.2334C31.3098 32.619 29.625 31.4733 27.7061 31.0104H27.8415ZM12.9186 21.2875H19.9332C20.5776 21.2867 21.2209 21.3411 21.8561 21.45C22.4409 21.5367 23.0026 21.7393 23.5082 22.0459C23.9966 22.3221 24.3924 22.7368 24.6457 23.2375C24.9593 23.838 25.1088 24.5107 25.079 25.1875C25.1295 25.7705 25.0403 26.357 24.819 26.8987C24.5976 27.4403 24.2504 27.9214 23.8061 28.3021C22.8368 28.9684 21.677 29.3012 20.5019 29.25H12.9186V21.2875ZM26.0269 41.4375C25.7487 41.9895 25.3279 42.457 24.8082 42.7917C24.2673 43.1281 23.6714 43.3665 23.0478 43.4958C22.3546 43.651 21.6455 43.7237 20.9353 43.7125H12.8103V34.3688H20.9353C22.3295 34.3077 23.7065 34.6971 24.8623 35.4792C25.3845 35.9478 25.789 36.5328 26.0431 37.1868C26.2972 37.8409 26.3937 38.5455 26.3248 39.2438C26.3981 39.9882 26.296 40.7395 26.0269 41.4375Z" fill="#0997FF"/>
</svg>
