<svg width="42" height="41" viewBox="0 0 42 41" fill="none" xmlns="http://www.w3.org/2000/svg">
<path d="M36.2102 4.48291H6.75105C6.04259 4.48291 5.47021 5.05528 5.47021 5.76374V35.2229C5.47021 35.9313 6.04259 36.5037 6.75105 36.5037H36.2102C36.9186 36.5037 37.491 35.9313 37.491 35.2229V5.76374C37.491 5.05528 36.9186 4.48291 36.2102 4.48291ZM32.5118 13.829H29.9541C27.9488 13.829 27.5605 14.7816 27.5605 16.1825V19.2685H32.3477L31.7233 24.0996H27.5605V36.5037H22.5693V24.1036H18.3946V19.2685H22.5693V15.7062C22.5693 11.5715 25.0949 9.31805 28.7853 9.31805C30.5545 9.31805 32.0715 9.45013 32.5158 9.51017V13.829H32.5118Z" fill="white"/>
</svg>
