<svg width="41" height="41" viewBox="0 0 41 41" fill="none" xmlns="http://www.w3.org/2000/svg">
<path d="M37.145 10.1786C35.9202 10.707 34.5873 11.0872 33.2144 11.2353C34.6398 10.3885 35.7072 9.05071 36.2164 7.47288C34.8788 8.26856 33.4136 8.8265 31.8855 9.12195C31.2469 8.43922 30.4745 7.89532 29.6165 7.52415C28.7585 7.15298 27.8332 6.96249 26.8983 6.96456C23.1159 6.96456 20.0739 10.0305 20.0739 13.793C20.0739 14.3213 20.1379 14.8497 20.242 15.358C14.5783 15.0618 9.52705 12.3561 6.16887 8.21337C5.55697 9.25851 5.23632 10.4485 5.24026 11.6596C5.24026 14.0291 6.44505 16.1185 8.28224 17.3473C7.19955 17.3047 6.14222 17.0071 5.19624 16.4787V16.5628C5.19624 19.8809 7.54176 22.6307 10.6678 23.2631C10.0808 23.4156 9.47704 23.4936 8.87062 23.4953C8.42633 23.4953 8.00606 23.4513 7.58178 23.3912C8.44634 26.097 10.964 28.0622 13.9619 28.1263C11.6164 29.9635 8.67849 31.0442 5.48843 31.0442C4.91605 31.0442 4.38771 31.0242 3.83936 30.9601C6.86532 32.9014 10.4556 34.0221 14.3222 34.0221C26.8743 34.0221 33.7428 23.6234 33.7428 14.5975C33.7428 14.3013 33.7428 14.0051 33.7227 13.7089C35.0516 12.7363 36.2164 11.5315 37.145 10.1786Z" fill="white"/>
</svg>
