<svg width="142" height="141" viewBox="0 0 142 141" fill="none" xmlns="http://www.w3.org/2000/svg">
<path d="M62.7168 33.0763C61.1476 33.3567 59.7549 34.2447 58.845 35.5448C57.9351 36.8449 57.5827 38.4506 57.8651 40.0087C58.1476 41.5669 59.0418 42.9498 60.3511 43.8533C61.6605 44.7567 63.2776 45.1067 64.8468 44.8263C66.8013 44.4909 68.7801 44.3141 70.7635 44.2975C80.1786 44.2975 89.2082 48.0113 95.8657 54.622C102.523 61.2326 106.263 70.1986 106.263 79.5475C106.247 81.5169 106.069 83.4818 105.731 85.4225C105.454 86.9488 105.797 88.5218 106.683 89.7984C107.57 91.0751 108.929 91.9519 110.464 92.2375H111.529C112.93 92.2602 114.294 91.7884 115.377 90.9062C116.461 90.024 117.194 88.7886 117.446 87.42C117.995 84.7508 118.292 82.0365 118.333 79.3125C118.306 68.8537 114.767 58.7026 108.275 50.4663L113.659 45.1788C114.773 44.0725 115.399 42.572 115.399 41.0075C115.399 39.443 114.773 37.9425 113.659 36.8363C112.545 35.73 111.034 35.1085 109.458 35.1085C107.883 35.1085 106.372 35.73 105.258 36.8363L99.9326 42.1825C91.6546 35.8032 81.4787 32.3318 71.0001 32.3125C68.2209 32.3072 65.4475 32.5629 62.7168 33.0763ZM59.1668 26.4375H82.8335C84.4027 26.4375 85.9076 25.8185 87.0172 24.7168C88.1268 23.615 88.7501 22.1206 88.7501 20.5625C88.7501 19.0044 88.1268 17.51 87.0172 16.4082C85.9076 15.3065 84.4027 14.6875 82.8335 14.6875H59.1668C57.5976 14.6875 56.0927 15.3065 54.9831 16.4082C53.8735 17.51 53.2501 19.0044 53.2501 20.5625C53.2501 22.1206 53.8735 23.615 54.9831 24.7168C56.0927 25.8185 57.5976 26.4375 59.1668 26.4375ZM79.816 79.7825C79.816 79.7825 79.816 79.4887 79.816 79.3125C79.816 79.1363 79.816 79.0188 79.816 78.8425L87.7443 71.0288C88.296 70.481 88.7336 69.8307 89.0321 69.115C89.3307 68.3993 89.4843 67.6322 89.4843 66.8575C89.4843 66.0828 89.3307 65.3157 89.0321 64.6C88.7336 63.8843 88.296 63.234 87.7443 62.6862C87.1926 62.1385 86.5377 61.704 85.8169 61.4075C85.0961 61.111 84.3236 60.9585 83.5435 60.9585C82.7633 60.9585 81.9908 61.111 81.27 61.4075C80.5492 61.704 79.8943 62.1385 79.3426 62.6862L71.4735 70.5H70.5268L33.7843 34.0163C32.6702 32.91 31.1591 32.2885 29.5835 32.2885C28.0078 32.2885 26.4967 32.91 25.3826 34.0163C24.2685 35.1225 23.6426 36.623 23.6426 38.1875C23.6426 39.752 24.2685 41.2525 25.3826 42.3587L28.2226 45.1788L33.6068 50.525C26.5865 59.5701 23.1228 70.8438 23.8629 82.2398C24.603 93.6357 29.4963 104.374 37.6284 112.449C45.7606 120.524 56.5753 125.383 68.0521 126.118C79.5288 126.853 90.8825 123.413 99.9918 116.442L108.216 124.609C108.766 125.159 109.42 125.596 110.141 125.895C110.862 126.193 111.636 126.347 112.417 126.347C113.198 126.347 113.971 126.193 114.692 125.895C115.413 125.596 116.068 125.159 116.618 124.609C117.172 124.063 117.612 123.413 117.913 122.697C118.213 121.981 118.368 121.213 118.368 120.438C118.368 119.662 118.213 118.894 117.913 118.178C117.612 117.462 117.172 116.812 116.618 116.266L79.816 79.7825ZM71.0001 114.562C64.4613 114.58 58.0446 112.805 52.4576 109.432C46.8706 106.058 42.3304 101.218 39.3379 95.4453C36.3453 89.6725 35.0166 83.191 35.4982 76.7159C35.9799 70.2408 38.2533 64.0236 42.0676 58.75L62.1843 78.6663C62.1843 78.6663 62.1843 78.96 62.1843 79.1363C62.1608 80.3033 62.371 81.4634 62.8027 82.5492C63.2345 83.6349 63.8792 84.6247 64.6994 85.461C65.5196 86.2973 66.4989 86.9634 67.5806 87.4207C68.6622 87.8781 69.8245 88.1175 71.0001 88.125H71.4735L91.531 108.1C85.5264 112.313 78.3526 114.571 71.0001 114.562Z" fill="#2091F9"/>
</svg>
