<svg width="142" height="141" viewBox="0 0 142 141" fill="none" xmlns="http://www.w3.org/2000/svg">
<path d="M100.584 64.625H94.6668C93.0976 64.625 91.5927 65.244 90.4831 66.3457C89.3735 67.4475 88.7502 68.9419 88.7502 70.5C88.7502 72.0581 89.3735 73.5525 90.4831 74.6543C91.5927 75.756 93.0976 76.375 94.6668 76.375H100.584C102.153 76.375 103.658 75.756 104.767 74.6543C105.877 73.5525 106.5 72.0581 106.5 70.5C106.5 68.9419 105.877 67.4475 104.767 66.3457C103.658 65.244 102.153 64.625 100.584 64.625ZM100.584 88.125H94.6668C93.0976 88.125 91.5927 88.744 90.4831 89.8457C89.3735 90.9475 88.7502 92.4419 88.7502 94C88.7502 95.5581 89.3735 97.0525 90.4831 98.1543C91.5927 99.256 93.0976 99.875 94.6668 99.875H100.584C102.153 99.875 103.658 99.256 104.767 98.1543C105.877 97.0525 106.5 95.5581 106.5 94C106.5 92.4419 105.877 90.9475 104.767 89.8457C103.658 88.744 102.153 88.125 100.584 88.125ZM65.0835 52.875H100.584C102.153 52.875 103.658 52.256 104.767 51.1543C105.877 50.0525 106.5 48.5581 106.5 47C106.5 45.4419 105.877 43.9475 104.767 42.8457C103.658 41.744 102.153 41.125 100.584 41.125H65.0835C63.5143 41.125 62.0094 41.744 60.8998 42.8457C59.7902 43.9475 59.1668 45.4419 59.1668 47C59.1668 48.5581 59.7902 50.0525 60.8998 51.1543C62.0094 52.256 63.5143 52.875 65.0835 52.875ZM124.25 17.625H41.4168C39.8476 17.625 38.3427 18.244 37.2331 19.3457C36.1235 20.4475 35.5002 21.9419 35.5002 23.5V41.125H17.7502C16.181 41.125 14.676 41.744 13.5664 42.8457C12.4569 43.9475 11.8335 45.4419 11.8335 47V105.75C11.8335 110.424 13.7036 114.907 17.0324 118.213C20.3611 121.518 24.8759 123.375 29.5835 123.375H106.5C112.777 123.375 118.797 120.899 123.235 116.492C127.673 112.085 130.167 106.108 130.167 99.875V23.5C130.167 21.9419 129.543 20.4475 128.434 19.3457C127.324 18.244 125.819 17.625 124.25 17.625ZM35.5002 105.75C35.5002 107.308 34.8768 108.802 33.7672 109.904C32.6576 111.006 31.1527 111.625 29.5835 111.625C28.0143 111.625 26.5094 111.006 25.3998 109.904C24.2902 108.802 23.6668 107.308 23.6668 105.75V52.875H35.5002V105.75ZM118.334 99.875C118.334 102.991 117.087 105.98 114.868 108.184C112.648 110.387 109.639 111.625 106.5 111.625H46.2685C46.9573 109.741 47.3175 107.754 47.3335 105.75V29.375H118.334V99.875ZM65.0835 76.375H71.0002C72.5694 76.375 74.0743 75.756 75.1839 74.6543C76.2935 73.5525 76.9168 72.0581 76.9168 70.5C76.9168 68.9419 76.2935 67.4475 75.1839 66.3457C74.0743 65.244 72.5694 64.625 71.0002 64.625H65.0835C63.5143 64.625 62.0094 65.244 60.8998 66.3457C59.7902 67.4475 59.1668 68.9419 59.1668 70.5C59.1668 72.0581 59.7902 73.5525 60.8998 74.6543C62.0094 75.756 63.5143 76.375 65.0835 76.375ZM65.0835 99.875H71.0002C72.5694 99.875 74.0743 99.256 75.1839 98.1543C76.2935 97.0525 76.9168 95.5581 76.9168 94C76.9168 92.4419 76.2935 90.9475 75.1839 89.8457C74.0743 88.744 72.5694 88.125 71.0002 88.125H65.0835C63.5143 88.125 62.0094 88.744 60.8998 89.8457C59.7902 90.9475 59.1668 92.4419 59.1668 94C59.1668 95.5581 59.7902 97.0525 60.8998 98.1543C62.0094 99.256 63.5143 99.875 65.0835 99.875Z" fill="#2091F9"/>
</svg>
