<svg width="424" height="69" viewBox="0 0 424 69" fill="none" xmlns="http://www.w3.org/2000/svg">
<path d="M0 34.4245C0 15.4124 15.4124 0 34.4245 0H389.54C408.553 0 423.965 15.4124 423.965 34.4245C423.965 53.4366 408.553 68.849 389.54 68.849H34.4245C15.4124 68.849 0 53.4366 0 34.4245Z" fill="url(#paint0_linear)"/>
<path d="M176.936 41.6836C176.689 43.7891 175.91 45.416 174.598 46.5645C173.294 47.7038 171.558 48.2734 169.389 48.2734C167.037 48.2734 165.15 47.4303 163.729 45.7441C162.316 44.0579 161.609 41.8021 161.609 38.9766V37.0625C161.609 35.2122 161.938 33.5853 162.594 32.1816C163.259 30.778 164.198 29.7025 165.41 28.9551C166.622 28.1986 168.026 27.8203 169.621 27.8203C171.736 27.8203 173.431 28.4128 174.707 29.5977C175.983 30.7734 176.726 32.4049 176.936 34.4922H174.297C174.069 32.9062 173.572 31.7578 172.807 31.0469C172.05 30.3359 170.988 29.9805 169.621 29.9805C167.944 29.9805 166.627 30.6003 165.67 31.8398C164.722 33.0794 164.248 34.8431 164.248 37.1309V39.0586C164.248 41.2188 164.699 42.9368 165.602 44.2129C166.504 45.4889 167.766 46.127 169.389 46.127C170.847 46.127 171.964 45.7988 172.738 45.1426C173.522 44.4772 174.042 43.3242 174.297 41.6836H176.936ZM189.468 48C189.322 47.7083 189.203 47.1888 189.112 46.4414C187.936 47.6628 186.533 48.2734 184.901 48.2734C183.443 48.2734 182.244 47.8633 181.305 47.043C180.376 46.2135 179.911 45.1654 179.911 43.8984C179.911 42.3581 180.494 41.1641 181.661 40.3164C182.837 39.4596 184.486 39.0312 186.61 39.0312H189.071V37.8691C189.071 36.985 188.807 36.2832 188.278 35.7637C187.749 35.235 186.97 34.9707 185.94 34.9707C185.038 34.9707 184.281 35.1986 183.671 35.6543C183.06 36.11 182.755 36.6615 182.755 37.3086H180.212C180.212 36.5703 180.471 35.8594 180.991 35.1758C181.52 34.4831 182.231 33.9362 183.124 33.5352C184.026 33.1341 185.015 32.9336 186.091 32.9336C187.795 32.9336 189.13 33.362 190.096 34.2188C191.063 35.0664 191.564 36.2376 191.6 37.7324V44.541C191.6 45.8991 191.774 46.9792 192.12 47.7812V48H189.468ZM185.27 46.0723C186.063 46.0723 186.815 45.8672 187.526 45.457C188.237 45.0469 188.752 44.5137 189.071 43.8574V40.8223H187.089C183.99 40.8223 182.44 41.7292 182.44 43.543C182.44 44.3359 182.705 44.9557 183.233 45.4023C183.762 45.849 184.441 46.0723 185.27 46.0723ZM198.513 48H195.984V27H198.513V48ZM208.707 46.209C209.61 46.209 210.398 45.9355 211.073 45.3887C211.747 44.8418 212.121 44.1582 212.194 43.3379H214.586C214.541 44.1855 214.249 44.9922 213.711 45.7578C213.174 46.5234 212.454 47.1341 211.551 47.5898C210.658 48.0456 209.71 48.2734 208.707 48.2734C206.693 48.2734 205.089 47.6035 203.895 46.2637C202.71 44.9147 202.118 43.0736 202.118 40.7402V40.3164C202.118 38.8763 202.382 37.5957 202.911 36.4746C203.439 35.3535 204.196 34.4831 205.18 33.8633C206.174 33.2435 207.345 32.9336 208.694 32.9336C210.353 32.9336 211.729 33.4303 212.823 34.4238C213.926 35.4173 214.513 36.707 214.586 38.293H212.194C212.121 37.3359 211.756 36.5521 211.1 35.9414C210.453 35.3216 209.651 35.0117 208.694 35.0117C207.409 35.0117 206.411 35.4766 205.7 36.4062C204.998 37.3268 204.647 38.6621 204.647 40.4121V40.8906C204.647 42.5951 204.998 43.9076 205.7 44.8281C206.401 45.7487 207.404 46.209 208.707 46.209ZM226.763 46.5371C225.779 47.6947 224.334 48.2734 222.429 48.2734C220.852 48.2734 219.649 47.8177 218.82 46.9062C217.999 45.9857 217.585 44.6276 217.575 42.832V33.207H220.105V42.7637C220.105 45.0059 221.016 46.127 222.839 46.127C224.771 46.127 226.057 45.4069 226.695 43.9668V33.207H229.224V48H226.818L226.763 46.5371ZM236.027 48H233.498V27H236.027V48ZM249.421 48C249.275 47.7083 249.156 47.1888 249.065 46.4414C247.889 47.6628 246.486 48.2734 244.854 48.2734C243.396 48.2734 242.197 47.8633 241.259 47.043C240.329 46.2135 239.864 45.1654 239.864 43.8984C239.864 42.3581 240.447 41.1641 241.614 40.3164C242.79 39.4596 244.44 39.0312 246.563 39.0312H249.024V37.8691C249.024 36.985 248.76 36.2832 248.231 35.7637C247.703 35.235 246.923 34.9707 245.893 34.9707C244.991 34.9707 244.235 35.1986 243.624 35.6543C243.013 36.11 242.708 36.6615 242.708 37.3086H240.165C240.165 36.5703 240.425 35.8594 240.944 35.1758C241.473 34.4831 242.184 33.9362 243.077 33.5352C243.979 33.1341 244.968 32.9336 246.044 32.9336C247.748 32.9336 249.083 33.362 250.05 34.2188C251.016 35.0664 251.517 36.2376 251.554 37.7324V44.541C251.554 45.8991 251.727 46.9792 252.073 47.7812V48H249.421ZM245.223 46.0723C246.016 46.0723 246.768 45.8672 247.479 45.457C248.19 45.0469 248.705 44.5137 249.024 43.8574V40.8223H247.042C243.943 40.8223 242.393 41.7292 242.393 43.543C242.393 44.3359 242.658 44.9557 243.186 45.4023C243.715 45.849 244.394 46.0723 245.223 46.0723ZM262.869 35.4766C262.486 35.4128 262.071 35.3809 261.625 35.3809C259.966 35.3809 258.84 36.0872 258.248 37.5V48H255.718V33.207H258.179L258.22 34.916C259.05 33.5944 260.226 32.9336 261.748 32.9336C262.24 32.9336 262.614 32.9974 262.869 33.125V35.4766Z" fill="white"/>
<defs>
<linearGradient id="paint0_linear" x1="-104.624" y1="65.4066" x2="-38.3136" y2="-164.089" gradientUnits="userSpaceOnUse">
<stop stop-color="#0997FF"/>
<stop offset="1" stop-color="#252B42"/>
</linearGradient>
</defs>
</svg>
