<svg width="96" height="96" viewBox="0 0 96 96" fill="none" xmlns="http://www.w3.org/2000/svg">
<path d="M50.84 33.16C50.4596 32.7958 50.011 32.5104 49.52 32.32C48.5461 31.9199 47.4538 31.9199 46.48 32.32C45.989 32.5104 45.5404 32.7958 45.16 33.16L33.16 45.16C32.4068 45.9132 31.9836 46.9348 31.9836 48C31.9836 49.0652 32.4068 50.0868 33.16 50.84C33.9132 51.5932 34.9348 52.0164 36 52.0164C37.0652 52.0164 38.0868 51.5932 38.84 50.84L44 45.64L44 60C44 61.0609 44.4214 62.0783 45.1716 62.8284C45.9217 63.5786 46.9391 64 48 64C49.0609 64 50.0783 63.5786 50.8284 62.8284C51.5786 62.0783 52 61.0609 52 60L52 45.64L57.16 50.84C57.5318 51.2149 57.9743 51.5125 58.4617 51.7155C58.9491 51.9186 59.4719 52.0232 60 52.0232C60.528 52.0232 61.0509 51.9186 61.5383 51.7155C62.0257 51.5125 62.4681 51.2149 62.84 50.84C63.2149 50.4681 63.5125 50.0257 63.7156 49.5383C63.9186 49.0509 64.0232 48.528 64.0232 48C64.0232 47.4719 63.9186 46.9491 63.7156 46.4617C63.5125 45.9742 63.2149 45.5318 62.84 45.16L50.84 33.16ZM48 7.99999C40.0887 7.99999 32.3551 10.346 25.7772 14.7412C19.1992 19.1365 14.0723 25.3836 11.0448 32.6926C8.01731 40.0017 7.22517 48.0444 8.76858 55.8036C10.312 63.5628 14.1216 70.6902 19.7157 76.2843C25.3098 81.8784 32.4371 85.688 40.1964 87.2314C47.9556 88.7748 55.9983 87.9827 63.3073 84.9552C70.6164 81.9277 76.8635 76.8008 81.2588 70.2228C85.654 63.6448 88 55.9112 88 48C88 37.3913 83.7857 27.2172 76.2843 19.7157C72.5699 16.0014 68.1604 13.055 63.3073 11.0448C58.4543 9.03462 53.2529 7.99999 48 7.99999ZM48 80C41.671 80 35.4841 78.1232 30.2218 74.607C24.9594 71.0908 20.8579 66.0931 18.4358 60.2459C16.0138 54.3986 15.3801 47.9645 16.6149 41.7571C17.8496 35.5497 20.8973 29.8478 25.3726 25.3726C29.8479 20.8973 35.5497 17.8496 41.7571 16.6149C47.9645 15.3801 54.3986 16.0138 60.2459 18.4358C66.0931 20.8578 71.0908 24.9594 74.607 30.2217C78.1232 35.4841 80 41.671 80 48C80 56.4869 76.6286 64.6262 70.6274 70.6274C64.6263 76.6286 56.4869 80 48 80Z" fill="#0997FF"/>
</svg>
