<svg width="468" height="76" viewBox="0 0 468 76" fill="none" xmlns="http://www.w3.org/2000/svg">
<path d="M0 35C0 15.67 15.67 0 35 0H433C452.33 0 468 15.67 468 35V41C468 60.33 452.33 76 433 76H35C15.67 76 0 60.33 0 41V35Z" fill="url(#paint0_linear)"/>
<path d="M167.9 44.5137L173.588 28.0938H176.459L169.076 48H166.752L159.383 28.0938H162.24L167.9 44.5137ZM184.479 48.2734C182.474 48.2734 180.843 47.6172 179.585 46.3047C178.327 44.9831 177.698 43.2194 177.698 41.0137V40.5488C177.698 39.0814 177.976 37.7734 178.532 36.625C179.097 35.4674 179.881 34.5651 180.884 33.918C181.895 33.2617 182.989 32.9336 184.165 32.9336C186.088 32.9336 187.583 33.5671 188.649 34.834C189.716 36.1009 190.249 37.9147 190.249 40.2754V41.3281H180.227C180.264 42.7865 180.688 43.9668 181.499 44.8691C182.319 45.7624 183.358 46.209 184.616 46.209C185.509 46.209 186.266 46.0267 186.886 45.6621C187.505 45.2975 188.048 44.8145 188.513 44.2129L190.057 45.416C188.818 47.321 186.958 48.2734 184.479 48.2734ZM184.165 35.0117C183.144 35.0117 182.287 35.3854 181.595 36.1328C180.902 36.8711 180.473 37.9102 180.309 39.25H187.72V39.0586C187.647 37.7734 187.3 36.7799 186.68 36.0781C186.061 35.3672 185.222 35.0117 184.165 35.0117ZM200.539 35.4766C200.156 35.4128 199.741 35.3809 199.295 35.3809C197.636 35.3809 196.51 36.0872 195.918 37.5V48H193.388V33.207H195.849L195.89 34.916C196.72 33.5944 197.895 32.9336 199.418 32.9336C199.91 32.9336 200.283 32.9974 200.539 33.125V35.4766ZM212.614 33.207L212.696 35.0664C213.827 33.6445 215.303 32.9336 217.126 32.9336C220.252 32.9336 221.829 34.6973 221.857 38.2246V48H219.327V38.2109C219.318 37.1445 219.072 36.3561 218.589 35.8457C218.115 35.3353 217.372 35.0801 216.361 35.0801C215.54 35.0801 214.82 35.2988 214.2 35.7363C213.581 36.1738 213.098 36.748 212.751 37.459V48H210.222V33.207H212.614ZM225.201 40.4668C225.201 39.0176 225.484 37.7142 226.049 36.5566C226.623 35.3991 227.416 34.5059 228.428 33.877C229.449 33.248 230.611 32.9336 231.914 32.9336C233.928 32.9336 235.555 33.6309 236.795 35.0254C238.044 36.4199 238.668 38.2747 238.668 40.5898V40.7676C238.668 42.2077 238.39 43.502 237.834 44.6504C237.287 45.7897 236.499 46.6784 235.469 47.3164C234.448 47.9544 233.272 48.2734 231.941 48.2734C229.936 48.2734 228.309 47.5762 227.061 46.1816C225.821 44.7871 225.201 42.9414 225.201 40.6445V40.4668ZM227.744 40.7676C227.744 42.4082 228.122 43.7253 228.879 44.7188C229.645 45.7122 230.665 46.209 231.941 46.209C233.227 46.209 234.247 45.7077 235.004 44.7051C235.76 43.6934 236.139 42.2806 236.139 40.4668C236.139 38.8444 235.751 37.5319 234.977 36.5293C234.211 35.5176 233.19 35.0117 231.914 35.0117C230.665 35.0117 229.658 35.5085 228.893 36.502C228.127 37.4954 227.744 38.9173 227.744 40.7676ZM245.471 29.625V33.207H248.233V35.1621H245.471V44.3359C245.471 44.9284 245.595 45.375 245.841 45.6758C246.087 45.9674 246.506 46.1133 247.098 46.1133C247.39 46.1133 247.791 46.0586 248.302 45.9492V48C247.636 48.1823 246.989 48.2734 246.36 48.2734C245.23 48.2734 244.378 47.9316 243.804 47.248C243.229 46.5645 242.942 45.5938 242.942 44.3359V35.1621H240.249V33.207H242.942V29.625H245.471ZM254.148 48H251.619V33.207H254.148V48ZM251.414 29.2832C251.414 28.873 251.537 28.5267 251.783 28.2441C252.038 27.9616 252.412 27.8203 252.904 27.8203C253.396 27.8203 253.77 27.9616 254.025 28.2441C254.28 28.5267 254.408 28.873 254.408 29.2832C254.408 29.6934 254.28 30.0352 254.025 30.3086C253.77 30.582 253.396 30.7188 252.904 30.7188C252.412 30.7188 252.038 30.582 251.783 30.3086C251.537 30.0352 251.414 29.6934 251.414 29.2832ZM264.342 46.209C265.245 46.209 266.033 45.9355 266.707 45.3887C267.382 44.8418 267.756 44.1582 267.829 43.3379H270.221C270.176 44.1855 269.884 44.9922 269.346 45.7578C268.808 46.5234 268.088 47.1341 267.186 47.5898C266.293 48.0456 265.345 48.2734 264.342 48.2734C262.328 48.2734 260.724 47.6035 259.53 46.2637C258.345 44.9147 257.752 43.0736 257.752 40.7402V40.3164C257.752 38.8763 258.017 37.5957 258.545 36.4746C259.074 35.3535 259.83 34.4831 260.815 33.8633C261.808 33.2435 262.98 32.9336 264.329 32.9336C265.987 32.9336 267.364 33.4303 268.457 34.4238C269.56 35.4173 270.148 36.707 270.221 38.293H267.829C267.756 37.3359 267.391 36.5521 266.735 35.9414C266.088 35.3216 265.286 35.0117 264.329 35.0117C263.043 35.0117 262.045 35.4766 261.334 36.4062C260.633 37.3268 260.282 38.6621 260.282 40.4121V40.8906C260.282 42.5951 260.633 43.9076 261.334 44.8281C262.036 45.7487 263.039 46.209 264.342 46.209ZM276.013 48H273.484V33.207H276.013V48ZM273.279 29.2832C273.279 28.873 273.402 28.5267 273.648 28.2441C273.903 27.9616 274.277 27.8203 274.769 27.8203C275.261 27.8203 275.635 27.9616 275.89 28.2441C276.145 28.5267 276.273 28.873 276.273 29.2832C276.273 29.6934 276.145 30.0352 275.89 30.3086C275.635 30.582 275.261 30.7188 274.769 30.7188C274.277 30.7188 273.903 30.582 273.648 30.3086C273.402 30.0352 273.279 29.6934 273.279 29.2832ZM289.406 48C289.26 47.7083 289.142 47.1888 289.051 46.4414C287.875 47.6628 286.471 48.2734 284.84 48.2734C283.382 48.2734 282.183 47.8633 281.244 47.043C280.314 46.2135 279.85 45.1654 279.85 43.8984C279.85 42.3581 280.433 41.1641 281.6 40.3164C282.775 39.4596 284.425 39.0312 286.549 39.0312H289.01V37.8691C289.01 36.985 288.745 36.2832 288.217 35.7637C287.688 35.235 286.909 34.9707 285.879 34.9707C284.977 34.9707 284.22 35.1986 283.609 35.6543C282.999 36.11 282.693 36.6615 282.693 37.3086H280.15C280.15 36.5703 280.41 35.8594 280.93 35.1758C281.458 34.4831 282.169 33.9362 283.062 33.5352C283.965 33.1341 284.954 32.9336 286.029 32.9336C287.734 32.9336 289.069 33.362 290.035 34.2188C291.001 35.0664 291.503 36.2376 291.539 37.7324V44.541C291.539 45.8991 291.712 46.9792 292.059 47.7812V48H289.406ZM285.209 46.0723C286.002 46.0723 286.754 45.8672 287.465 45.457C288.176 45.0469 288.691 44.5137 289.01 43.8574V40.8223H287.027C283.928 40.8223 282.379 41.7292 282.379 43.543C282.379 44.3359 282.643 44.9557 283.172 45.4023C283.701 45.849 284.38 46.0723 285.209 46.0723ZM304.317 44.0762C304.317 43.3926 304.057 42.8639 303.538 42.4902C303.027 42.1074 302.13 41.7793 300.845 41.5059C299.568 41.2324 298.552 40.9043 297.796 40.5215C297.048 40.1387 296.492 39.6829 296.128 39.1543C295.772 38.6257 295.595 37.9967 295.595 37.2676C295.595 36.0553 296.105 35.0299 297.126 34.1914C298.156 33.3529 299.468 32.9336 301.063 32.9336C302.74 32.9336 304.098 33.3665 305.137 34.2324C306.186 35.0983 306.71 36.2057 306.71 37.5547H304.167C304.167 36.862 303.871 36.265 303.278 35.7637C302.695 35.2624 301.957 35.0117 301.063 35.0117C300.143 35.0117 299.423 35.2122 298.903 35.6133C298.384 36.0143 298.124 36.5384 298.124 37.1855C298.124 37.7962 298.365 38.2565 298.848 38.5664C299.332 38.8763 300.202 39.1725 301.46 39.4551C302.727 39.7376 303.752 40.0749 304.536 40.4668C305.32 40.8587 305.899 41.3327 306.272 41.8887C306.655 42.4355 306.846 43.1055 306.846 43.8984C306.846 45.2201 306.318 46.2819 305.261 47.084C304.203 47.877 302.832 48.2734 301.145 48.2734C299.96 48.2734 298.912 48.0638 298.001 47.6445C297.089 47.2253 296.374 46.6419 295.854 45.8945C295.344 45.138 295.089 44.3223 295.089 43.4473H297.618C297.664 44.2949 298.001 44.9694 298.63 45.4707C299.268 45.9629 300.106 46.209 301.145 46.209C302.102 46.209 302.868 46.0176 303.442 45.6348C304.026 45.2428 304.317 44.7233 304.317 44.0762Z" fill="white"/>
<defs>
<linearGradient id="paint0_linear" x1="-115.49" y1="72.2" x2="-42.293" y2="-181.132" gradientUnits="userSpaceOnUse">
<stop stop-color="#0997FF"/>
<stop offset="1" stop-color="#252B42"/>
</linearGradient>
</defs>
</svg>
