<svg width="65" height="65" viewBox="0 0 65 65" fill="none" xmlns="http://www.w3.org/2000/svg">
<path d="M32.4999 6.08484C26.0689 6.08511 19.8478 8.37369 14.9498 12.5411C10.0518 16.7085 6.79648 22.4828 5.76631 28.8307C4.73615 35.1787 5.99838 41.6861 9.32714 47.1885C12.6559 52.691 17.834 56.8295 23.9349 58.8635C25.289 59.1005 25.7968 58.288 25.7968 57.577C25.7968 56.9338 25.763 54.801 25.763 52.5328C18.9582 53.7853 17.1978 50.874 16.6562 49.3505C16.0551 47.8689 15.1023 46.5559 13.8801 45.5249C12.9322 45.0171 11.578 43.7645 13.8462 43.7307C14.7123 43.8247 15.543 44.1261 16.2679 44.6093C16.9927 45.0925 17.5904 45.7434 18.0103 46.5067C18.3807 47.1721 18.8788 47.7579 19.476 48.2305C20.0733 48.7031 20.7579 49.0533 21.4906 49.2608C22.2234 49.4684 22.9899 49.5293 23.7462 49.4401C24.5026 49.3509 25.2339 49.1134 25.8983 48.7411C26.0155 47.3642 26.6292 46.0769 27.6249 45.1188C21.5989 44.4417 15.302 42.1056 15.302 31.7464C15.2639 29.0547 16.2572 26.4504 18.078 24.4677C17.25 22.1283 17.3469 19.561 18.3489 17.2906C18.3489 17.2906 20.617 16.5797 25.7968 20.0667C30.2284 18.8479 34.9068 18.8479 39.3385 20.0667C44.5181 16.5459 46.7864 17.2906 46.7864 17.2906C47.7884 19.561 47.8853 22.1283 47.0572 24.4677C48.8835 26.447 49.8776 29.0536 49.8332 31.7464C49.8332 42.1395 43.5025 44.4417 37.4765 45.1188C38.1228 45.7739 38.6206 46.5604 38.9361 47.4249C39.2515 48.2895 39.3772 49.2118 39.3046 50.1292C39.3046 53.7516 39.2707 56.663 39.2707 57.5771C39.2707 58.2881 39.7785 59.1344 41.1327 58.8636C47.2228 56.813 52.386 52.6648 55.7006 47.1595C59.0152 41.6543 60.2654 35.1502 59.2281 28.8084C58.1908 22.4666 54.9335 16.6998 50.0376 12.5375C45.1418 8.37514 38.926 6.08818 32.4999 6.08484Z" fill="#0997FF"/>
</svg>
