<svg width="65" height="65" viewBox="0 0 65 65" fill="none" xmlns="http://www.w3.org/2000/svg">
<path d="M55.4395 5.41664H9.56035C9.04463 5.40948 8.53254 5.50398 8.05334 5.69474C7.57414 5.88551 7.13721 6.1688 6.76751 6.52844C6.39781 6.88809 6.10257 7.31703 5.89866 7.79079C5.69475 8.26455 5.58617 8.77383 5.5791 9.28956V55.7104C5.58617 56.2261 5.69475 56.7354 5.89866 57.2092C6.10257 57.6829 6.39781 58.1119 6.76751 58.4715C7.13721 58.8311 7.57414 59.1144 8.05334 59.3052C8.53254 59.496 9.04463 59.5905 9.56035 59.5833H55.4395C55.9552 59.5905 56.4673 59.496 56.9465 59.3052C57.4257 59.1144 57.8627 58.8311 58.2324 58.4715C58.6021 58.1119 58.8973 57.6829 59.1012 57.2092C59.3051 56.7354 59.4137 56.2261 59.4208 55.7104V9.28956C59.4137 8.77383 59.3051 8.26455 59.1012 7.79079C58.8973 7.31703 58.6021 6.88809 58.2324 6.52844C57.8627 6.1688 57.4257 5.88551 56.9465 5.69474C56.4673 5.50398 55.9552 5.40948 55.4395 5.41664ZM21.9104 50.7541H13.7854V26.3791H21.9104V50.7541ZM17.8479 22.9666C16.7273 22.9666 15.6527 22.5215 14.8603 21.7292C14.068 20.9368 13.6229 19.8622 13.6229 18.7416C13.6229 17.6211 14.068 16.5465 14.8603 15.7541C15.6527 14.9618 16.7273 14.5166 17.8479 14.5166C18.4429 14.4492 19.0454 14.5081 19.6161 14.6897C20.1867 14.8712 20.7126 15.1712 21.1592 15.5701C21.6059 15.9689 21.9632 16.4576 22.2079 17.0042C22.4526 17.5507 22.5791 18.1428 22.5791 18.7416C22.5791 19.3405 22.4526 19.9325 22.2079 20.4791C21.9632 21.0256 21.6059 21.5143 21.1592 21.9132C20.7126 22.3121 20.1867 22.6121 19.6161 22.7936C19.0454 22.9752 18.4429 23.0341 17.8479 22.9666ZM51.2145 50.7541H43.0895V37.6729C43.0895 34.3958 41.9249 32.2562 38.9729 32.2562C38.0592 32.2629 37.1696 32.5495 36.4239 33.0773C35.6781 33.6052 35.1121 34.3489 34.802 35.2083C34.5901 35.8449 34.4982 36.5153 34.5312 37.1854V50.7271H26.4062C26.4062 50.7271 26.4062 28.5729 26.4062 26.3521H34.5312V29.7916C35.2693 28.5109 36.3428 27.4558 37.6361 26.7399C38.9294 26.024 40.3936 25.6746 41.8708 25.7291C47.2874 25.7291 51.2145 29.2229 51.2145 36.725V50.7541Z" fill="#0997FF"/>
</svg>
