<svg width="73" height="73" viewBox="0 0 73 73" fill="none" xmlns="http://www.w3.org/2000/svg">
<path d="M21.0239 45.0512H30.0341C30.8307 45.0512 31.5946 44.7348 32.1579 44.1716C32.7211 43.6083 33.0376 42.8444 33.0376 42.0478C33.0376 41.2513 32.7211 40.4873 32.1579 39.9241C31.5946 39.3608 30.8307 39.0444 30.0341 39.0444H21.0239C20.2274 39.0444 19.4634 39.3608 18.9002 39.9241C18.3369 40.4873 18.0205 41.2513 18.0205 42.0478C18.0205 42.8444 18.3369 43.6083 18.9002 44.1716C19.4634 44.7348 20.2274 45.0512 21.0239 45.0512ZM57.0649 15.0171H15.0171C12.6274 15.0171 10.3356 15.9664 8.64588 17.6561C6.95613 19.3459 6.00684 21.6377 6.00684 24.0273V51.0581C6.00684 53.4477 6.95613 55.7395 8.64588 57.4293C10.3356 59.119 12.6274 60.0683 15.0171 60.0683H57.0649C59.4545 60.0683 61.7463 59.119 63.4361 57.4293C65.1258 55.7395 66.0751 53.4477 66.0751 51.0581V24.0273C66.0751 21.6377 65.1258 19.3459 63.4361 17.6561C61.7463 15.9664 59.4545 15.0171 57.0649 15.0171ZM60.0683 51.0581C60.0683 51.8546 59.7519 52.6185 59.1886 53.1818C58.6254 53.745 57.8614 54.0615 57.0649 54.0615H15.0171C14.2205 54.0615 13.4566 53.745 12.8933 53.1818C12.3301 52.6185 12.0137 51.8546 12.0137 51.0581V33.0376H60.0683V51.0581ZM60.0683 27.0307H12.0137V24.0273C12.0137 23.2308 12.3301 22.4668 12.8933 21.9036C13.4566 21.3403 14.2205 21.0239 15.0171 21.0239H57.0649C57.8614 21.0239 58.6254 21.3403 59.1886 21.9036C59.7519 22.4668 60.0683 23.2308 60.0683 24.0273V27.0307Z" fill="#0997FF"/>
</svg>
