<svg width="78" height="78" viewBox="0 0 78 78" fill="none" xmlns="http://www.w3.org/2000/svg">
<path d="M35.75 29.25H48.75C49.612 29.25 50.4386 28.9076 51.0481 28.2981C51.6576 27.6886 52 26.862 52 26C52 25.138 51.6576 24.3114 51.0481 23.7019C50.4386 23.0924 49.612 22.75 48.75 22.75H42.25V19.5C42.25 18.638 41.9076 17.8114 41.2981 17.2019C40.6886 16.5924 39.862 16.25 39 16.25C38.1381 16.25 37.3114 16.5924 36.7019 17.2019C36.0924 17.8114 35.75 18.638 35.75 19.5V22.75C33.1642 22.75 30.6842 23.7772 28.8557 25.6057C27.0272 27.4342 26 29.9141 26 32.5C26 35.0859 27.0272 37.5658 28.8557 39.3943C30.6842 41.2228 33.1642 42.25 35.75 42.25H42.25C43.112 42.25 43.9386 42.5924 44.5481 43.2019C45.1576 43.8114 45.5 44.6381 45.5 45.5C45.5 46.362 45.1576 47.1886 44.5481 47.7981C43.9386 48.4076 43.112 48.75 42.25 48.75H29.25C28.3881 48.75 27.5614 49.0924 26.9519 49.7019C26.3424 50.3114 26 51.1381 26 52C26 52.862 26.3424 53.6886 26.9519 54.2981C27.5614 54.9076 28.3881 55.25 29.25 55.25H35.75V58.5C35.75 59.362 36.0924 60.1886 36.7019 60.7981C37.3114 61.4076 38.1381 61.75 39 61.75C39.862 61.75 40.6886 61.4076 41.2981 60.7981C41.9076 60.1886 42.25 59.362 42.25 58.5V55.25C44.8359 55.25 47.3158 54.2228 49.1443 52.3943C50.9728 50.5658 52 48.0859 52 45.5C52 42.9141 50.9728 40.4342 49.1443 38.6057C47.3158 36.7772 44.8359 35.75 42.25 35.75H35.75C34.8881 35.75 34.0614 35.4076 33.4519 34.7981C32.8424 34.1886 32.5 33.362 32.5 32.5C32.5 31.638 32.8424 30.8114 33.4519 30.2019C34.0614 29.5924 34.8881 29.25 35.75 29.25ZM39 3.25C31.9293 3.25 25.0174 5.3467 19.1384 9.27496C13.2593 13.2032 8.67716 18.7866 5.97132 25.3191C3.26549 31.8515 2.55752 39.0397 3.93694 45.9745C5.31636 52.9093 8.72122 59.2793 13.7209 64.2791C18.7207 69.2788 25.0907 72.6837 32.0255 74.0631C38.9604 75.4425 46.1485 74.7345 52.6809 72.0287C59.2134 69.3229 64.7968 64.7407 68.7251 58.8616C72.6533 52.9826 74.75 46.0707 74.75 39C74.75 29.5185 70.9835 20.4254 64.2791 13.7209C57.5747 7.01651 48.4815 3.25 39 3.25ZM39 68.25C33.2149 68.25 27.5597 66.5345 22.7496 63.3205C17.9394 60.1065 14.1904 55.5382 11.9765 50.1935C9.76268 44.8488 9.18343 38.9676 10.312 33.2936C11.4407 27.6197 14.2265 22.4078 18.3171 18.3171C22.4078 14.2264 27.6197 11.4406 33.2936 10.312C38.9676 9.18341 44.8488 9.76266 50.1935 11.9765C55.5382 14.1904 60.1065 17.9394 63.3205 22.7496C66.5345 27.5597 68.25 33.2149 68.25 39C68.25 46.7576 65.1683 54.1974 59.6829 59.6829C54.1974 65.1683 46.7576 68.25 39 68.25Z" fill="#0997FF"/>
</svg>
