<svg width="103" height="91" viewBox="0 0 103 91" fill="none" xmlns="http://www.w3.org/2000/svg">
<rect x="19" width="84" height="84" fill="white"/>
<path d="M59.2997 67.72C54.9397 67.72 50.9997 66.78 47.4797 64.9C43.9997 63.02 41.2597 60.44 39.2597 57.16C37.2997 53.84 36.3197 50.12 36.3197 46C36.3197 41.88 37.2997 38.18 39.2597 34.9C41.2597 31.58 43.9997 28.98 47.4797 27.1C50.9997 25.22 54.9397 24.28 59.2997 24.28C63.6597 24.28 67.5797 25.22 71.0597 27.1C74.5397 28.98 77.2797 31.58 79.2797 34.9C81.2797 38.18 82.2797 41.88 82.2797 46C82.2797 50.12 81.2797 53.84 79.2797 57.16C77.2797 60.44 74.5397 63.02 71.0597 64.9C67.5797 66.78 63.6597 67.72 59.2997 67.72ZM59.2997 59.44C61.7797 59.44 64.0197 58.88 66.0197 57.76C68.0197 56.6 69.5797 55 70.6997 52.96C71.8597 50.92 72.4397 48.6 72.4397 46C72.4397 43.4 71.8597 41.08 70.6997 39.04C69.5797 37 68.0197 35.42 66.0197 34.3C64.0197 33.14 61.7797 32.56 59.2997 32.56C56.8197 32.56 54.5797 33.14 52.5797 34.3C50.5797 35.42 48.9997 37 47.8397 39.04C46.7197 41.08 46.1597 43.4 46.1597 46C46.1597 48.6 46.7197 50.92 47.8397 52.96C48.9997 55 50.5797 56.6 52.5797 57.76C54.5797 58.88 56.8197 59.44 59.2997 59.44Z" fill="#0997FF"/>
<circle cx="86" cy="18" r="9" fill="#0997FF"/>
</svg>
