<svg width="259" height="82" viewBox="0 0 259 82" fill="none" xmlns="http://www.w3.org/2000/svg">
<path d="M84.9987 58.72C80.7187 58.72 76.8387 57.8 73.3587 55.96C69.9187 54.08 67.1987 51.5 65.1987 48.22C63.2387 44.9 62.2587 41.16 62.2587 37C62.2587 32.84 63.2387 29.12 65.1987 25.84C67.1987 22.52 69.9187 19.94 73.3587 18.1C76.8387 16.22 80.7387 15.28 85.0587 15.28C88.6987 15.28 91.9787 15.92 94.8987 17.2C97.8587 18.48 100.339 20.32 102.339 22.72L96.0987 28.48C93.2587 25.2 89.7387 23.56 85.5387 23.56C82.9387 23.56 80.6187 24.14 78.5787 25.3C76.5387 26.42 74.9387 28 73.7787 30.04C72.6587 32.08 72.0987 34.4 72.0987 37C72.0987 39.6 72.6587 41.92 73.7787 43.96C74.9387 46 76.5387 47.6 78.5787 48.76C80.6187 49.88 82.9387 50.44 85.5387 50.44C89.7387 50.44 93.2587 48.78 96.0987 45.46L102.339 51.22C100.339 53.66 97.8587 55.52 94.8987 56.8C91.9387 58.08 88.6387 58.72 84.9987 58.72ZM126.011 58.72C120.011 58.72 115.331 57.06 111.971 53.74C108.651 50.42 106.991 45.68 106.991 39.52V16H116.711V39.16C116.711 46.68 119.831 50.44 126.071 50.44C129.111 50.44 131.431 49.54 133.031 47.74C134.631 45.9 135.431 43.04 135.431 39.16V16H145.031V39.52C145.031 45.68 143.351 50.42 139.991 53.74C136.671 57.06 132.011 58.72 126.011 58.72ZM173.776 58.72C169.416 58.72 165.476 57.78 161.956 55.9C158.476 54.02 155.736 51.44 153.736 48.16C151.776 44.84 150.796 41.12 150.796 37C150.796 32.88 151.776 29.18 153.736 25.9C155.736 22.58 158.476 19.98 161.956 18.1C165.476 16.22 169.416 15.28 173.776 15.28C178.136 15.28 182.056 16.22 185.536 18.1C189.016 19.98 191.756 22.58 193.756 25.9C195.756 29.18 196.756 32.88 196.756 37C196.756 41.12 195.756 44.84 193.756 48.16C191.756 51.44 189.016 54.02 185.536 55.9C182.056 57.78 178.136 58.72 173.776 58.72ZM173.776 50.44C176.256 50.44 178.496 49.88 180.496 48.76C182.496 47.6 184.056 46 185.176 43.96C186.336 41.92 186.916 39.6 186.916 37C186.916 34.4 186.336 32.08 185.176 30.04C184.056 28 182.496 26.42 180.496 25.3C178.496 24.14 176.256 23.56 173.776 23.56C171.296 23.56 169.056 24.14 167.056 25.3C165.056 26.42 163.476 28 162.316 30.04C161.196 32.08 160.636 34.4 160.636 37C160.636 39.6 161.196 41.92 162.316 43.96C163.476 46 165.056 47.6 167.056 48.76C169.056 49.88 171.296 50.44 173.776 50.44Z" fill="#0997FF"/>
<circle cx="206" cy="9" r="9" fill="#0997FF"/>
</svg>
