<svg width="142" height="142" viewBox="0 0 142 142" fill="none" xmlns="http://www.w3.org/2000/svg">
<path d="M65.0832 53.25H88.7499C90.3191 53.25 91.824 52.6266 92.9336 51.517C94.0432 50.4074 94.6665 48.9025 94.6665 47.3333C94.6665 45.7641 94.0432 44.2592 92.9336 43.1496C91.824 42.04 90.3191 41.4166 88.7499 41.4166H76.9165V35.5C76.9165 33.9308 76.2932 32.4258 75.1836 31.3162C74.074 30.2067 72.5691 29.5833 70.9999 29.5833C69.4307 29.5833 67.9257 30.2067 66.8162 31.3162C65.7066 32.4258 65.0832 33.9308 65.0832 35.5V41.4166C60.3756 41.4166 55.8608 43.2867 52.5321 46.6155C49.2033 49.9443 47.3332 54.459 47.3332 59.1666C47.3332 63.8742 49.2033 68.389 52.5321 71.7178C55.8608 75.0465 60.3756 76.9166 65.0832 76.9166H76.9165C78.4857 76.9166 79.9907 77.54 81.1002 78.6496C82.2098 79.7592 82.8332 81.2641 82.8332 82.8333C82.8332 84.4025 82.2098 85.9074 81.1002 87.017C79.9907 88.1266 78.4857 88.75 76.9165 88.75H53.2499C51.6807 88.75 50.1757 89.3733 49.0662 90.4829C47.9566 91.5925 47.3332 93.0974 47.3332 94.6666C47.3332 96.2358 47.9566 97.7408 49.0662 98.8503C50.1757 99.9599 51.6807 100.583 53.2499 100.583H65.0832V106.5C65.0832 108.069 65.7066 109.574 66.8162 110.684C67.9257 111.793 69.4307 112.417 70.9999 112.417C72.5691 112.417 74.074 111.793 75.1836 110.684C76.2932 109.574 76.9165 108.069 76.9165 106.5V100.583C81.6241 100.583 86.1389 98.7132 89.4677 95.3844C92.7964 92.0557 94.6665 87.5409 94.6665 82.8333C94.6665 78.1257 92.7964 73.6109 89.4677 70.2821C86.1389 66.9534 81.6241 65.0833 76.9165 65.0833H65.0832C63.514 65.0833 62.0091 64.4599 60.8995 63.3503C59.7899 62.2407 59.1665 60.7358 59.1665 59.1666C59.1665 57.5974 59.7899 56.0925 60.8995 54.9829C62.0091 53.8733 63.514 53.25 65.0832 53.25ZM70.9999 5.91663C58.1276 5.91663 45.5444 9.7337 34.8415 16.8851C24.1386 24.0366 15.7967 34.2012 10.8707 46.0936C5.9447 57.9861 4.65584 71.0722 7.16709 83.6971C9.67835 96.322 15.8769 107.919 24.979 117.021C34.0811 126.123 45.6778 132.321 58.3027 134.833C70.9277 137.344 84.0138 136.055 95.9062 131.129C107.799 126.203 117.963 117.861 125.115 107.158C132.266 96.4554 136.083 83.8722 136.083 71C136.083 53.7388 129.226 37.1846 117.021 24.9791C104.815 12.7736 88.261 5.91663 70.9999 5.91663ZM70.9999 124.25C60.468 124.25 50.1727 121.127 41.4157 115.276C32.6588 109.425 25.8336 101.108 21.8033 91.3779C17.7729 81.6477 16.7184 70.9409 18.773 60.6114C20.8277 50.2819 25.8993 40.7937 33.3464 33.3465C40.7936 25.8994 50.2818 20.8278 60.6113 18.7731C70.9408 16.7185 81.6476 17.773 91.3778 21.8034C101.108 25.8337 109.424 32.6589 115.276 41.4158C121.127 50.1728 124.25 60.4681 124.25 71C124.25 85.1227 118.64 98.6671 108.653 108.653C98.667 118.64 85.1226 124.25 70.9999 124.25Z" fill="#0997FF"/>
</svg>
